<svg xmlns="http://www.w3.org/2000/svg" width="75" height="75" viewBox="0 0 75 75"><g transform="translate(-926 -1374)"><circle cx="37.5" cy="37.5" r="37.5" transform="translate(926 1374)" fill="rgba(0,0,0,0)"/><path d="M37.5,1A36.51,36.51,0,0,0,23.293,71.132,36.51,36.51,0,0,0,51.707,3.868,36.27,36.27,0,0,0,37.5,1m0-1A37.5,37.5,0,1,1,0,37.5,37.5,37.5,0,0,1,37.5,0Z" transform="translate(926 1374)" fill="#707070"/><g transform="translate(946 1394)"><path d="M6,4.5H30A4.505,4.505,0,0,1,34.5,9V27A4.505,4.505,0,0,1,30,31.5H6A4.505,4.505,0,0,1,1.5,27V9A4.505,4.505,0,0,1,6,4.5Zm24,24A1.5,1.5,0,0,0,31.5,27V9A1.5,1.5,0,0,0,30,7.5H6A1.5,1.5,0,0,0,4.5,9V27A1.5,1.5,0,0,0,6,28.5Z"/><path d="M18,21a1.5,1.5,0,0,1-.86-.271l-15-10.5A1.5,1.5,0,1,1,3.86,7.771L18,17.669l14.14-9.9a1.5,1.5,0,1,1,1.72,2.458l-15,10.5A1.5,1.5,0,0,1,18,21Z"/></g></g></svg>