<svg xmlns="http://www.w3.org/2000/svg" width="75" height="75" viewBox="0 0 75 75"><g transform="translate(-926 -1374)"><g transform="translate(926 1374)" fill="none" stroke="#707070" stroke-width="1"><circle cx="37.5" cy="37.5" r="37.5" stroke="none"/><circle cx="37.5" cy="37.5" r="37" fill="none"/></g><path d="M17.995,1.928A15.424,15.424,0,1,0,33.419,17.352,15.424,15.424,0,0,0,17.995,1.928Zm0,28.921a13.451,13.451,0,0,1-5.339-1.1l7.024-7.9a.964.964,0,0,0,.243-.64V18.316a.964.964,0,0,0-.964-.964c-3.4,0-7-3.539-7.031-3.574a.964.964,0,0,0-.682-.282H7.391a.964.964,0,0,0-.964.964v5.784a.964.964,0,0,0,.533.862l3.323,1.662v5.66A13.5,13.5,0,0,1,5.8,11.568H9.319A.964.964,0,0,0,10,11.286L13.857,7.43a.964.964,0,0,0,.282-.682V4.416a13.534,13.534,0,0,1,9.769.8c-.125.105-.246.216-.363.332a5.785,5.785,0,0,0,4.086,9.875q.143,0,.287-.007a22.638,22.638,0,0,1-.253,11.217.961.961,0,0,0-.025.157,13.454,13.454,0,0,1-9.644,4.057Z" transform="translate(945.429 1394.072)"/></g></svg>